<svg xmlns="http://www.w3.org/2000/svg" viewBox="0 0 1382.13 375.66"><defs><style>.cls-1{fill:#11437f;}.cls-2{fill:#75b94d;}.cls-3{fill:#1699d6;}</style></defs><g id="Capa_2" data-name="Capa 2"><g id="Capa_1-2" data-name="Capa 1"><path class="cls-1" d="M586.72,367.73h-5.47a2.31,2.31,0,0,1-1.53-.47,2.87,2.87,0,0,1-.88-1.2L574,353.44H550.5l-4.88,12.62a3,3,0,0,1-.88,1.16,2.32,2.32,0,0,1-1.53.51h-5.47l20.9-52.26h7.18Zm-34.24-19.4H572l-8.2-21.26a39.25,39.25,0,0,1-1.57-4.93q-.4,1.5-.78,2.76c-.26.84-.51,1.57-.75,2.21Z"/><path class="cls-1" d="M601.31,368.32a8.91,8.91,0,0,1-6.73-2.45q-2.36-2.43-2.36-7V336.22h-4.44a1.45,1.45,0,0,1-1-.34,1.34,1.34,0,0,1-.4-1.08v-2.59l6.05-.76,1.5-11.42a1.39,1.39,0,0,1,.47-.89,1.52,1.52,0,0,1,1-.35h3.29v12.73h10.57v4.7H598.72V358.4a4.72,4.72,0,0,0,1.12,3.46,4,4,0,0,0,2.93,1.13,5.17,5.17,0,0,0,1.76-.27,7.52,7.52,0,0,0,1.3-.6c.36-.22.68-.42.93-.6a1.16,1.16,0,0,1,.67-.28,1.14,1.14,0,0,1,.92.62l1.89,3.1a12,12,0,0,1-4,2.46A13.65,13.65,0,0,1,601.31,368.32Z"/><path class="cls-1" d="M629.75,330.2a16.5,16.5,0,0,1,6.13,1.12,13.71,13.71,0,0,1,4.85,3.21,14.68,14.68,0,0,1,3.19,5.18,19.88,19.88,0,0,1,1.15,7,4.2,4.2,0,0,1-.33,2,1.36,1.36,0,0,1-1.24.51H618.92a20.59,20.59,0,0,0,1,6.09,12.48,12.48,0,0,0,2.4,4.32,9.65,9.65,0,0,0,3.65,2.59,12.55,12.55,0,0,0,4.74.86,13.85,13.85,0,0,0,4.22-.57,19,19,0,0,0,3-1.22,23.23,23.23,0,0,0,2.14-1.22,2.8,2.8,0,0,1,1.47-.57,1.43,1.43,0,0,1,1.24.62l1.82,2.37a12,12,0,0,1-2.88,2.54,17.63,17.63,0,0,1-3.59,1.77,22.59,22.59,0,0,1-4,1,24.14,24.14,0,0,1-4,.35,18.83,18.83,0,0,1-7.06-1.3,15.54,15.54,0,0,1-5.58-3.79,17.53,17.53,0,0,1-3.67-6.18,25.32,25.32,0,0,1-1.31-8.47,21.82,21.82,0,0,1,1.18-7.22,17.11,17.11,0,0,1,3.42-5.81,15.47,15.47,0,0,1,5.43-3.87A17.78,17.78,0,0,1,629.75,330.2Zm.15,4.78a10,10,0,0,0-7.41,2.72,12.85,12.85,0,0,0-3.35,7.53h20.1a13.22,13.22,0,0,0-.62-4.14,9.36,9.36,0,0,0-1.83-3.24,8,8,0,0,0-2.94-2.12A9.83,9.83,0,0,0,629.9,335Z"/><path class="cls-1" d="M651.16,367.73V330.79H655a1.64,1.64,0,0,1,1.75,1.35l.52,4a20.35,20.35,0,0,1,5.38-4.3,13.91,13.91,0,0,1,6.87-1.65,13.28,13.28,0,0,1,5.34,1,10.26,10.26,0,0,1,3.87,2.84,12.56,12.56,0,0,1,2.35,4.44,19.06,19.06,0,0,1,.8,5.72v23.52h-6.49V344.21a9.91,9.91,0,0,0-1.91-6.51q-1.92-2.32-5.86-2.32a11,11,0,0,0-5.38,1.39,17.73,17.73,0,0,0-4.61,3.76v27.2Z"/><path class="cls-1" d="M714.73,337.35a2.94,2.94,0,0,1-.58.62,1.38,1.38,0,0,1-.84.22,2.11,2.11,0,0,1-1.19-.45,15.85,15.85,0,0,0-1.62-1,14.47,14.47,0,0,0-2.39-1,12.59,12.59,0,0,0-8.22.51,9.29,9.29,0,0,0-3.48,2.79,12.57,12.57,0,0,0-2.12,4.41,22.1,22.1,0,0,0-.71,5.8,21.26,21.26,0,0,0,.76,6,12.86,12.86,0,0,0,2.16,4.37,9.09,9.09,0,0,0,3.37,2.7,10.39,10.39,0,0,0,4.47.93,11.59,11.59,0,0,0,3.9-.56,12.11,12.11,0,0,0,2.55-1.26,18.26,18.26,0,0,0,1.68-1.26,2,2,0,0,1,1.31-.57,1.38,1.38,0,0,1,1.24.62l1.82,2.37a14,14,0,0,1-6,4.33,21.39,21.39,0,0,1-7.62,1.37,16.13,16.13,0,0,1-6.44-1.28,14.77,14.77,0,0,1-5.16-3.7,17.62,17.62,0,0,1-3.45-6,23.93,23.93,0,0,1-1.26-8.06,24.49,24.49,0,0,1,1.15-7.62,17.12,17.12,0,0,1,3.36-6,15.25,15.25,0,0,1,5.45-4,18.35,18.35,0,0,1,7.44-1.43,17.56,17.56,0,0,1,6.86,1.26,16.61,16.61,0,0,1,5.29,3.56Z"/><path class="cls-1" d="M730.09,319.19a4.09,4.09,0,0,1-.39,1.77,4.93,4.93,0,0,1-1,1.46,4.72,4.72,0,0,1-1.48,1,4.47,4.47,0,0,1-1.78.37,4.38,4.38,0,0,1-1.77-.37,4.74,4.74,0,0,1-1.46-1,4.69,4.69,0,0,1-1-1.46,4.38,4.38,0,0,1-.37-1.77,4.72,4.72,0,0,1,2.83-4.3,4.38,4.38,0,0,1,1.77-.37,4.47,4.47,0,0,1,1.78.37,4.55,4.55,0,0,1,1.48,1,4.86,4.86,0,0,1,1,1.5A4.29,4.29,0,0,1,730.09,319.19Zm-1.46,11.6v36.94h-6.49V330.79Z"/><path class="cls-1" d="M752.84,330.2a18.83,18.83,0,0,1,7.32,1.36,15.36,15.36,0,0,1,5.54,3.82,17,17,0,0,1,3.5,6,26,26,0,0,1,0,15.74,16.82,16.82,0,0,1-3.5,6,15.21,15.21,0,0,1-5.54,3.81,20.64,20.64,0,0,1-14.63,0A15.29,15.29,0,0,1,740,363.1a17,17,0,0,1-3.54-6,25.59,25.59,0,0,1,0-15.74,17.22,17.22,0,0,1,3.54-6,15.44,15.44,0,0,1,5.56-3.82A18.82,18.82,0,0,1,752.84,330.2Zm0,33q5.48,0,8.17-3.66t2.7-10.23q0-6.6-2.7-10.29t-8.17-3.68a11.37,11.37,0,0,0-4.81.95,9,9,0,0,0-3.41,2.73,12.26,12.26,0,0,0-2,4.4,23.54,23.54,0,0,0-.68,5.89,23.26,23.26,0,0,0,.68,5.87,12,12,0,0,0,2,4.36,9.06,9.06,0,0,0,3.41,2.72A11.37,11.37,0,0,0,752.84,363.17Zm10.65-48.28L755,324.3a3.55,3.55,0,0,1-1,.78,2.84,2.84,0,0,1-1.25.24h-3.87l5.4-8.83a3.7,3.7,0,0,1,1.11-1.22,3.28,3.28,0,0,1,1.77-.38Z"/><path class="cls-1" d="M776.26,367.73V330.79h3.86a1.65,1.65,0,0,1,1.75,1.35l.51,4a20.67,20.67,0,0,1,5.38-4.3,14,14,0,0,1,6.88-1.65,13.28,13.28,0,0,1,5.34,1,10.3,10.3,0,0,1,3.86,2.84,12.58,12.58,0,0,1,2.36,4.44,19.38,19.38,0,0,1,.8,5.72v23.52h-6.49V344.21a9.91,9.91,0,0,0-1.92-6.51q-1.9-2.32-5.85-2.32a11,11,0,0,0-5.38,1.39,17.94,17.94,0,0,0-4.62,3.76v27.2Z"/><path class="cls-1" d="M847.67,336.88a1.44,1.44,0,0,1-1.35.8,2.49,2.49,0,0,1-1.24-.4c-.46-.27-1-.57-1.7-.89a15.61,15.61,0,0,0-2.39-.91,11.32,11.32,0,0,0-3.28-.42,9.75,9.75,0,0,0-3,.42,7.21,7.21,0,0,0-2.23,1.14,5.1,5.1,0,0,0-1.43,1.7,4.64,4.64,0,0,0-.49,2.1,3.47,3.47,0,0,0,.82,2.37,7.16,7.16,0,0,0,2.17,1.64,18.94,18.94,0,0,0,3.06,1.22c1.15.35,2.32.73,3.52,1.13s2.38.85,3.52,1.33a13,13,0,0,1,3.07,1.83,8,8,0,0,1,3,6.49,12,12,0,0,1-.92,4.72,10.21,10.21,0,0,1-2.69,3.76,13,13,0,0,1-4.38,2.5,18.2,18.2,0,0,1-6,.91,18.61,18.61,0,0,1-7-1.26,17.76,17.76,0,0,1-5.33-3.23l1.53-2.48a2.34,2.34,0,0,1,.7-.73,1.93,1.93,0,0,1,1.06-.25,2.46,2.46,0,0,1,1.38.51c.48.34,1.07.72,1.77,1.13a13.79,13.79,0,0,0,2.51,1.13,11.53,11.53,0,0,0,3.71.51,10.14,10.14,0,0,0,3.32-.49,7,7,0,0,0,2.37-1.33,5.26,5.26,0,0,0,1.4-1.94,5.9,5.9,0,0,0,.45-2.33,3.87,3.87,0,0,0-.82-2.54,6.82,6.82,0,0,0-2.16-1.71,17.75,17.75,0,0,0-3.09-1.24c-1.15-.35-2.33-.72-3.53-1.11s-2.39-.84-3.54-1.33a12.32,12.32,0,0,1-3.08-1.88,8.54,8.54,0,0,1-2.17-2.79,9,9,0,0,1-.82-4,9.89,9.89,0,0,1,.87-4.07,10.12,10.12,0,0,1,2.56-3.43,12.49,12.49,0,0,1,4.12-2.35,16.48,16.48,0,0,1,5.57-.88,17.74,17.74,0,0,1,6.55,1.15,15.69,15.69,0,0,1,5,3.16Z"/><path class="cls-1" d="M864.66,319.19a4.23,4.23,0,0,1-.38,1.77,5.33,5.33,0,0,1-1,1.46,4.83,4.83,0,0,1-1.48,1,4.52,4.52,0,0,1-1.79.37,4.38,4.38,0,0,1-1.77-.37,4.82,4.82,0,0,1-1.45-1,4.72,4.72,0,0,1-1-1.46,4.38,4.38,0,0,1-.36-1.77,4.59,4.59,0,0,1,.36-1.8,4.79,4.79,0,0,1,2.46-2.5,4.38,4.38,0,0,1,1.77-.37,4.52,4.52,0,0,1,1.79.37,4.66,4.66,0,0,1,1.48,1,5.24,5.24,0,0,1,1,1.5A4.44,4.44,0,0,1,864.66,319.19Zm-1.46,11.6v36.94h-6.49V330.79Z"/><path class="cls-1" d="M872.47,367.73V330.79h3.86a1.66,1.66,0,0,1,1.75,1.35l.51,4a20.67,20.67,0,0,1,5.38-4.3,13.94,13.94,0,0,1,6.87-1.65,13.33,13.33,0,0,1,5.35,1,10.3,10.3,0,0,1,3.86,2.84,12.58,12.58,0,0,1,2.36,4.44,19.38,19.38,0,0,1,.8,5.72v23.52h-6.49V344.21a9.91,9.91,0,0,0-1.92-6.51q-1.9-2.32-5.85-2.32a11,11,0,0,0-5.38,1.39,17.94,17.94,0,0,0-4.62,3.76v27.2Z"/><path class="cls-1" d="M933.92,368.32a8.91,8.91,0,0,1-6.73-2.45q-2.36-2.43-2.35-7V336.22h-4.45a1.47,1.47,0,0,1-1-.34,1.37,1.37,0,0,1-.4-1.08v-2.59l6.06-.76L926.55,320a1.36,1.36,0,0,1,.48-.89,1.52,1.52,0,0,1,1-.35h3.28v12.73h10.58v4.7H931.33V358.4a4.72,4.72,0,0,0,1.13,3.46,3.93,3.93,0,0,0,2.92,1.13,5.23,5.23,0,0,0,1.77-.27,7.4,7.4,0,0,0,1.29-.6q.55-.33.93-.6a1.19,1.19,0,0,1,.68-.28,1.13,1.13,0,0,1,.91.62l1.89,3.1a11.81,11.81,0,0,1-4,2.46A13.66,13.66,0,0,1,933.92,368.32Z"/><path class="cls-1" d="M974.88,367.73H972a3.37,3.37,0,0,1-1.53-.29,1.61,1.61,0,0,1-.76-1.24l-.73-3.43c-1,.88-1.92,1.66-2.85,2.36a17,17,0,0,1-2.91,1.75,15.28,15.28,0,0,1-3.27,1.07,18.91,18.91,0,0,1-3.85.37,12.93,12.93,0,0,1-4-.61,9,9,0,0,1-3.26-1.81,8.67,8.67,0,0,1-2.21-3,10.87,10.87,0,0,1-.82-4.38,8.09,8.09,0,0,1,1.21-4.22,10.5,10.5,0,0,1,3.88-3.61,25.14,25.14,0,0,1,7-2.58,47.77,47.77,0,0,1,10.61-1v-2.89c0-2.89-.61-5.07-1.84-6.56a6.66,6.66,0,0,0-5.45-2.22,11.55,11.55,0,0,0-4,.61,14.72,14.72,0,0,0-2.81,1.35c-.79.49-1.47.94-2,1.34a2.88,2.88,0,0,1-1.69.61,2,2,0,0,1-1.15-.35,2.56,2.56,0,0,1-.78-.86L947.56,336a21.16,21.16,0,0,1,6.6-4.41,20.43,20.43,0,0,1,7.84-1.46,14,14,0,0,1,5.51,1,11.47,11.47,0,0,1,4,2.85,12,12,0,0,1,2.48,4.41,18.36,18.36,0,0,1,.84,5.69Zm-16.85-4a13.21,13.21,0,0,0,3.13-.35,12.59,12.59,0,0,0,2.68-1,14.09,14.09,0,0,0,2.41-1.55,19.66,19.66,0,0,0,2.24-2.08v-7.63a44.39,44.39,0,0,0-7.62.57,21.53,21.53,0,0,0-5.11,1.49,7.08,7.08,0,0,0-2.86,2.17,4.7,4.7,0,0,0-.89,2.78,6.24,6.24,0,0,0,.47,2.53,4.88,4.88,0,0,0,1.28,1.75,5.07,5.07,0,0,0,1.9,1A8.49,8.49,0,0,0,958,363.76Z"/><path class="cls-1" d="M982.54,367.73V330.79h3.86a1.66,1.66,0,0,1,1.75,1.35l.51,4a20.67,20.67,0,0,1,5.38-4.3,13.91,13.91,0,0,1,6.87-1.65,13.33,13.33,0,0,1,5.35,1,10.3,10.3,0,0,1,3.86,2.84,12.4,12.4,0,0,1,2.35,4.44,19.05,19.05,0,0,1,.81,5.72v23.52h-6.49V344.21a9.91,9.91,0,0,0-1.92-6.51q-1.9-2.32-5.85-2.32a11,11,0,0,0-5.38,1.39,17.77,17.77,0,0,0-4.62,3.76v27.2Z"/><path class="cls-1" d="M1032.09,368.32a8.88,8.88,0,0,1-6.72-2.45q-2.35-2.43-2.36-7V336.22h-4.45a1.44,1.44,0,0,1-1-.34,1.34,1.34,0,0,1-.4-1.08v-2.59l6.05-.76,1.5-11.42a1.39,1.39,0,0,1,.47-.89,1.52,1.52,0,0,1,1-.35h3.28v12.73h10.58v4.7H1029.5V358.4a4.72,4.72,0,0,0,1.13,3.46,3.94,3.94,0,0,0,2.92,1.13,5.19,5.19,0,0,0,1.77-.27,7.52,7.52,0,0,0,1.3-.6q.54-.33.93-.6a1.16,1.16,0,0,1,.67-.28,1.14,1.14,0,0,1,.92.62L1041,365a12,12,0,0,1-4,2.46A13.66,13.66,0,0,1,1032.09,368.32Z"/><path class="cls-1" d="M1073.05,367.73h-2.88a3.37,3.37,0,0,1-1.53-.29,1.61,1.61,0,0,1-.77-1.24l-.73-3.43c-1,.88-1.92,1.66-2.84,2.36a16.73,16.73,0,0,1-2.92,1.75,15.1,15.1,0,0,1-3.27,1.07,18.81,18.81,0,0,1-3.84.37,12.84,12.84,0,0,1-4-.61,9.16,9.16,0,0,1-3.27-1.81,8.52,8.52,0,0,1-2.2-3,10.7,10.7,0,0,1-.83-4.38,8.18,8.18,0,0,1,1.21-4.22,10.58,10.58,0,0,1,3.88-3.61,25.26,25.26,0,0,1,7-2.58,47.87,47.87,0,0,1,10.62-1v-2.89c0-2.89-.62-5.07-1.84-6.56a6.68,6.68,0,0,0-5.45-2.22,11.57,11.57,0,0,0-4,.61,15,15,0,0,0-2.81,1.35c-.79.49-1.47.94-2,1.34a2.9,2.9,0,0,1-1.7.61,2,2,0,0,1-1.15-.35,2.67,2.67,0,0,1-.78-.86l-1.16-2.08a21.23,21.23,0,0,1,6.59-4.41,20.5,20.5,0,0,1,7.84-1.46,14.08,14.08,0,0,1,5.52,1,11.34,11.34,0,0,1,4,2.85,12,12,0,0,1,2.48,4.41,18.36,18.36,0,0,1,.84,5.69Zm-16.85-4a13.36,13.36,0,0,0,3.14-.35,12.59,12.59,0,0,0,2.68-1,14,14,0,0,0,2.4-1.55,20.61,20.61,0,0,0,2.25-2.08v-7.63a44.39,44.39,0,0,0-7.62.57,21.25,21.25,0,0,0-5.11,1.49,6.94,6.94,0,0,0-2.86,2.17,4.64,4.64,0,0,0-.9,2.78,6.08,6.08,0,0,0,.48,2.53,4.85,4.85,0,0,0,1.27,1.75,5.14,5.14,0,0,0,1.9,1A8.54,8.54,0,0,0,1056.2,363.76Z"/><path class="cls-1" d="M1087.93,330.79h5.33a2,2,0,0,1,1.27.4,2.3,2.3,0,0,1,.73.95l9.37,23.78a17.52,17.52,0,0,1,.81,2.62c.19.88.37,1.74.54,2.59.2-.85.4-1.71.62-2.59a22.1,22.1,0,0,1,.84-2.62l9.49-23.78a2.19,2.19,0,0,1,.7-1,2,2,0,0,1,1.23-.38h5.07l-15.07,36.94H1103Z"/><path class="cls-1" d="M1133.37,330.79v23.56a9.84,9.84,0,0,0,1.93,6.49,7.23,7.23,0,0,0,5.84,2.3,11.17,11.17,0,0,0,5.36-1.35,16.56,16.56,0,0,0,4.63-3.76V330.79h6.5v36.94h-3.87a1.66,1.66,0,0,1-1.75-1.34l-.51-4a20.2,20.2,0,0,1-5.4,4.28,14.05,14.05,0,0,1-6.86,1.63,13.35,13.35,0,0,1-5.34-1,10.63,10.63,0,0,1-3.88-2.82,11.93,11.93,0,0,1-2.35-4.42,19.39,19.39,0,0,1-.79-5.72V330.79Z"/><path class="cls-1" d="M1180.75,330.2a16.58,16.58,0,0,1,6.13,1.12,13.71,13.71,0,0,1,4.85,3.21,14.68,14.68,0,0,1,3.19,5.18,20.1,20.1,0,0,1,1.15,7,4.2,4.2,0,0,1-.33,2,1.36,1.36,0,0,1-1.24.51h-24.58a20.59,20.59,0,0,0,.95,6.09,12.32,12.32,0,0,0,2.4,4.32,9.58,9.58,0,0,0,3.65,2.59,12.55,12.55,0,0,0,4.74.86,13.79,13.79,0,0,0,4.21-.57,18.76,18.76,0,0,0,3.05-1.22,22.92,22.92,0,0,0,2.13-1.22,2.83,2.83,0,0,1,1.48-.57,1.44,1.44,0,0,1,1.24.62l1.82,2.37a12.16,12.16,0,0,1-2.88,2.54,17.63,17.63,0,0,1-3.59,1.77,22.82,22.82,0,0,1-4,1,24.24,24.24,0,0,1-4,.35,18.83,18.83,0,0,1-7.06-1.3,15.54,15.54,0,0,1-5.58-3.79,17.53,17.53,0,0,1-3.67-6.18,25.32,25.32,0,0,1-1.31-8.47,21.57,21.57,0,0,1,1.18-7.22,17.11,17.11,0,0,1,3.42-5.81,15.47,15.47,0,0,1,5.43-3.87A17.75,17.75,0,0,1,1180.75,330.2Zm.15,4.78a10,10,0,0,0-7.41,2.72,12.79,12.79,0,0,0-3.35,7.53h20.1a12.94,12.94,0,0,0-.63-4.14,9.18,9.18,0,0,0-1.82-3.24,8,8,0,0,0-2.94-2.12A9.83,9.83,0,0,0,1180.9,335Z"/><path class="cls-1" d="M1209.38,314v53.72h-6.49V314Z"/><path class="cls-1" d="M1229.84,368.32a8.92,8.92,0,0,1-6.73-2.45q-2.35-2.43-2.35-7V336.22h-4.45a1.47,1.47,0,0,1-1-.34,1.37,1.37,0,0,1-.4-1.08v-2.59l6.06-.76,1.49-11.42a1.36,1.36,0,0,1,.48-.89,1.52,1.52,0,0,1,1-.35h3.28v12.73h10.58v4.7h-10.58V358.4a4.72,4.72,0,0,0,1.13,3.46,3.93,3.93,0,0,0,2.92,1.13,5.23,5.23,0,0,0,1.77-.27,7.4,7.4,0,0,0,1.29-.6q.56-.33.93-.6a1.19,1.19,0,0,1,.68-.28,1.13,1.13,0,0,1,.91.62l1.9,3.1a12,12,0,0,1-4,2.46A13.66,13.66,0,0,1,1229.84,368.32Z"/><path class="cls-1" d="M1270.8,367.73h-2.89a3.37,3.37,0,0,1-1.53-.29,1.61,1.61,0,0,1-.76-1.24l-.73-3.43c-1,.88-1.92,1.66-2.85,2.36a17,17,0,0,1-2.91,1.75,15.28,15.28,0,0,1-3.27,1.07,18.91,18.91,0,0,1-3.85.37,12.93,12.93,0,0,1-4-.61,9,9,0,0,1-3.26-1.81,8.67,8.67,0,0,1-2.21-3,10.87,10.87,0,0,1-.82-4.38,8.09,8.09,0,0,1,1.21-4.22,10.5,10.5,0,0,1,3.88-3.61,25.26,25.26,0,0,1,7-2.58,47.83,47.83,0,0,1,10.61-1v-2.89c0-2.89-.61-5.07-1.84-6.56a6.66,6.66,0,0,0-5.45-2.22,11.55,11.55,0,0,0-4,.61,14.72,14.72,0,0,0-2.81,1.35c-.79.49-1.47.94-2,1.34a2.88,2.88,0,0,1-1.69.61,2,2,0,0,1-1.15-.35,2.56,2.56,0,0,1-.78-.86l-1.17-2.08a21.27,21.27,0,0,1,6.6-4.41,20.43,20.43,0,0,1,7.84-1.46,14,14,0,0,1,5.51,1,11.47,11.47,0,0,1,4,2.85,12,12,0,0,1,2.48,4.41,18.36,18.36,0,0,1,.84,5.69Zm-16.85-4a13.21,13.21,0,0,0,3.13-.35,12.59,12.59,0,0,0,2.68-1,14.09,14.09,0,0,0,2.41-1.55,19.66,19.66,0,0,0,2.24-2.08v-7.63a44.39,44.39,0,0,0-7.62.57,21.53,21.53,0,0,0-5.11,1.49,7.08,7.08,0,0,0-2.86,2.17,4.7,4.7,0,0,0-.89,2.78,6.24,6.24,0,0,0,.47,2.53,4.88,4.88,0,0,0,1.28,1.75,5.07,5.07,0,0,0,1.9,1A8.49,8.49,0,0,0,1254,363.76Z"/><path class="cls-1" d="M426.41,271.36V157h21.18a9.43,9.43,0,0,1,5.35,1.44,7.66,7.66,0,0,1,3,4.3l1.87,6.17a65.94,65.94,0,0,1,6-5.46,39,39,0,0,1,6.67-4.3,38.16,38.16,0,0,1,7.72-2.87,37.47,37.47,0,0,1,9.1-1q10.36,0,17.15,5.35a33.25,33.25,0,0,1,10.31,14.28,33.76,33.76,0,0,1,7-9.05,37.56,37.56,0,0,1,8.93-6.06,43.8,43.8,0,0,1,10.15-3.42,52.88,52.88,0,0,1,10.64-1.1,48.31,48.31,0,0,1,17.42,2.92,33.19,33.19,0,0,1,12.74,8.49,36.61,36.61,0,0,1,7.77,13.68,58.83,58.83,0,0,1,2.65,18.36v72.68H557.87V198.68q0-17.76-15.21-17.76a15.63,15.63,0,0,0-11.53,4.58q-4.57,4.58-4.58,13.18v72.68H492.36V198.68q0-9.81-3.85-13.78t-11.36-4a19.09,19.09,0,0,0-8.77,2.1,32,32,0,0,0-7.78,5.62v82.72Z"/><path class="cls-1" d="M641.69,157v72.57q0,8.49,3.86,13.12t11.36,4.64A24.41,24.41,0,0,0,667.44,245a39.09,39.09,0,0,0,9.54-6.51V157h34.19V271.36H690q-6.39,0-8.38-5.74L679.52,259a67.71,67.71,0,0,1-6.84,5.79,42.71,42.71,0,0,1-7.55,4.41,44.43,44.43,0,0,1-18.81,3.91,40,40,0,0,1-16.6-3.25,34.17,34.17,0,0,1-12.18-9.1A39.68,39.68,0,0,1,610,247a57.12,57.12,0,0,1-2.54-17.43V157Z"/><path class="cls-1" d="M771.16,273.12a40.31,40.31,0,0,1-14.39-2.37,27.77,27.77,0,0,1-16.93-17.26,40.73,40.73,0,0,1-2.2-13.78V180.59h-9.71a6.18,6.18,0,0,1-6.4-6.72V160.52l18.2-3.53,6.73-27.9q1.32-5.3,7.5-5.29h17.87v33.41h27.79v23.38H771.83v56.8a10.7,10.7,0,0,0,1.92,6.56,6.53,6.53,0,0,0,5.57,2.59,10.94,10.94,0,0,0,3.15-.38,12.74,12.74,0,0,0,2.2-.88c.62-.34,1.21-.63,1.76-.89a4.7,4.7,0,0,1,1.94-.38,4.05,4.05,0,0,1,2.48.71,9.24,9.24,0,0,1,1.93,2.27l10.36,16.21a47,47,0,0,1-14.89,7.44A58.93,58.93,0,0,1,771.16,273.12Z"/><path class="cls-1" d="M844.61,157v72.57q0,8.49,3.86,13.12t11.36,4.64A24.41,24.41,0,0,0,870.36,245a39.09,39.09,0,0,0,9.54-6.51V157h34.19V271.36H892.91q-6.39,0-8.38-5.74l-2.1-6.61a66.53,66.53,0,0,1-6.83,5.79,43.16,43.16,0,0,1-7.56,4.41,44.34,44.34,0,0,1-18.8,3.91,40,40,0,0,1-16.6-3.25,34.2,34.2,0,0,1-12.19-9.1A39.82,39.82,0,0,1,813,247a56.82,56.82,0,0,1-2.54-17.43V157Z"/><path class="cls-1" d="M1012.9,271.36c-3.23,0-5.68-.44-7.33-1.32s-3-2.73-4.14-5.52L999,258.23q-4.31,3.64-8.28,6.4a52.22,52.22,0,0,1-8.21,4.69,40.68,40.68,0,0,1-9,2.87,55.94,55.94,0,0,1-10.63.93,46.63,46.63,0,0,1-14.23-2,29.82,29.82,0,0,1-10.87-6,26.43,26.43,0,0,1-6.89-9.91,35.74,35.74,0,0,1-2.42-13.66,28.65,28.65,0,0,1,3.08-12.5q3.09-6.42,10.7-11.68t20.51-8.79Q975.64,205,995.26,205v-4.9q0-10.12-4.14-14.64t-11.74-4.51a31.24,31.24,0,0,0-9.93,1.33,43.35,43.35,0,0,0-6.89,3q-3,1.65-5.9,3a16.27,16.27,0,0,1-6.84,1.33,10.33,10.33,0,0,1-6-1.71,12.69,12.69,0,0,1-3.91-4.25l-6.18-10.7a69.55,69.55,0,0,1,23-13.62,80.59,80.59,0,0,1,27.08-4.46,49.55,49.55,0,0,1,18.69,3.36,40.31,40.31,0,0,1,14.12,9.37,41,41,0,0,1,8.88,14.29,51.48,51.48,0,0,1,3.08,18.08v71.47Zm-39.26-20.84a27.2,27.2,0,0,0,11.58-2.32,35.41,35.41,0,0,0,10-7.5V225a88.78,88.78,0,0,0-16.88,1.33,40.83,40.83,0,0,0-10.47,3.34,12.73,12.73,0,0,0-5.35,4.56,10.8,10.8,0,0,0-1.49,5.56c0,3.94,1.06,6.7,3.2,8.29S969.52,250.52,973.64,250.52Z"/><path class="cls-1" d="M1081.5,106.26v165.1h-34.19V106.26Z"/><path class="cls-1" d="M1172.37,182a8.94,8.94,0,0,1-2.81,3,7.46,7.46,0,0,1-3.81.88,12.12,12.12,0,0,1-4.85-1l-5.24-2.26a57,57,0,0,0-6.34-2.26,28.25,28.25,0,0,0-8-1q-6.51,0-10,2.48a8,8,0,0,0-3.48,6.89,6.91,6.91,0,0,0,2.27,5.3,20.38,20.38,0,0,0,6,3.69,81,81,0,0,0,8.5,3q4.74,1.44,9.7,3.2A87.11,87.11,0,0,1,1164,208a36.46,36.46,0,0,1,8.49,5.84,26.17,26.17,0,0,1,6,8.44,28.54,28.54,0,0,1,2.26,11.91,39.15,39.15,0,0,1-3.09,15.66,33.22,33.22,0,0,1-9.21,12.35,43.51,43.51,0,0,1-15.1,8.06,68.18,68.18,0,0,1-20.68,2.86A63.28,63.28,0,0,1,1121,272a80.23,80.23,0,0,1-11.31-3,61.45,61.45,0,0,1-10.09-4.47,44,44,0,0,1-7.94-5.56l7.94-12.58A11.33,11.33,0,0,1,1103,243a9.56,9.56,0,0,1,5.19-1.27,10.79,10.79,0,0,1,5.34,1.32l5.13,2.87a42.65,42.65,0,0,0,6.45,2.87,28,28,0,0,0,9.32,1.32,23.76,23.76,0,0,0,6.73-.82,12,12,0,0,0,4.41-2.26,9.24,9.24,0,0,0,2.43-3.2,9.08,9.08,0,0,0,.77-3.64,7.42,7.42,0,0,0-2.32-5.63,20,20,0,0,0-6.06-3.8,73.34,73.34,0,0,0-8.55-3q-4.8-1.38-9.76-3.14a78.13,78.13,0,0,1-9.76-4.25,33.6,33.6,0,0,1-8.55-6.28,29.24,29.24,0,0,1-6.06-9.32,34.35,34.35,0,0,1-2.32-13.35,34.88,34.88,0,0,1,2.81-13.84,32.27,32.27,0,0,1,8.44-11.53,41.62,41.62,0,0,1,14.12-7.88,61,61,0,0,1,19.85-2.92,64.18,64.18,0,0,1,12,1.1,61.87,61.87,0,0,1,10.87,3.09,51.8,51.8,0,0,1,9.26,4.69,44.1,44.1,0,0,1,7.39,5.9Z"/><path class="cls-1" d="M1241.85,155.23a58.76,58.76,0,0,1,20.79,3.53A45.24,45.24,0,0,1,1278.85,169a46.76,46.76,0,0,1,10.58,16.49,60.45,60.45,0,0,1,3.81,22.11,48.41,48.41,0,0,1-.33,6.29,9.75,9.75,0,0,1-1.22,3.86,4.51,4.51,0,0,1-2.36,2,11.11,11.11,0,0,1-3.81.56h-66q1.65,14.34,8.71,20.78t18.2,6.46a32.48,32.48,0,0,0,10.26-1.44,50.9,50.9,0,0,0,7.66-3.2c2.24-1.17,4.3-2.24,6.18-3.19a12.76,12.76,0,0,1,5.9-1.44,7.06,7.06,0,0,1,6.17,3l9.93,12.24a50.55,50.55,0,0,1-11.42,9.87,59.47,59.47,0,0,1-12.57,6,68.3,68.3,0,0,1-12.9,3,97,97,0,0,1-12.3.82,64.2,64.2,0,0,1-22.55-3.91,51.84,51.84,0,0,1-18.42-11.64A54.74,54.74,0,0,1,1190,238.38q-4.57-11.46-4.58-26.69A60.4,60.4,0,0,1,1189.3,190a52.78,52.78,0,0,1,29-30.22A58.53,58.53,0,0,1,1241.85,155.23Zm.66,23.6q-9.83,0-15.33,5.57t-7.28,16h42.68a30.62,30.62,0,0,0-1-7.94,19.54,19.54,0,0,0-3.42-6.89,17.53,17.53,0,0,0-6.23-4.91A21.34,21.34,0,0,0,1242.51,178.83Z"/><path class="cls-1" d="M1306.25,271.36V157h20.3a17.52,17.52,0,0,1,4.24.44,7.6,7.6,0,0,1,2.87,1.38,5.88,5.88,0,0,1,1.76,2.48,22.42,22.42,0,0,1,1,3.75l1.87,10.7a56.2,56.2,0,0,1,14.12-15.33,28.68,28.68,0,0,1,17.09-5.62c5.23,0,9.41,1.25,12.58,3.75l-4.41,25.14a4.91,4.91,0,0,1-1.77,3.25,6,6,0,0,1-3.53.94,22.69,22.69,0,0,1-4.41-.5,34.28,34.28,0,0,0-6.39-.49q-13.47,0-21.18,14.34v70.14Z"/><path class="cls-1" d="M33.19,257.75A159.06,159.06,0,1,1,341.06,314a191.41,191.41,0,0,0,43.44-121.7C384.5,86.07,298.43,0,192.25,0S0,86.07,0,192.25A191.41,191.41,0,0,0,43.44,314,158.53,158.53,0,0,1,33.19,257.75Z"/><path class="cls-2" d="M192.25,123.53C118.09,123.53,58,182.08,58,254.3c0,41.76,20.13,78.92,51.43,102.87a96.44,96.44,0,0,1-16.85-54.51c0-54.2,44.74-98.14,99.92-98.14s99.92,43.94,99.92,98.14a96.35,96.35,0,0,1-16.45,53.86c30.82-24,50.59-60.83,50.59-102.22C326.53,182.08,266.41,123.53,192.25,123.53Z"/><ellipse class="cls-3" cx="192.25" cy="302.45" rx="77.22" ry="73.21"/></g></g></svg>