<?xml version="1.0" encoding="UTF-8" standalone="no"?>
<svg
   viewBox="0 0 90.990574 33.553846"
   version="1.1"
   id="svg14"
   sodipodi:docname="nutricia-logo.svg"
   width="90.990578"
   height="33.553844"
   inkscape:version="1.4.2 (ebf0e940, 2025-05-08)"
   xmlns:inkscape="http://www.inkscape.org/namespaces/inkscape"
   xmlns:sodipodi="http://sodipodi.sourceforge.net/DTD/sodipodi-0.dtd"
   xmlns:xlink="http://www.w3.org/1999/xlink"
   xmlns="http://www.w3.org/2000/svg"
   xmlns:svg="http://www.w3.org/2000/svg">
  <defs
     id="defs14">
    <radialGradient
       inkscape:collect="always"
       xlink:href="#A"
       id="radialGradient14"
       gradientUnits="userSpaceOnUse"
       gradientTransform="matrix(321.992,0,0,-198.8094,262663.97,125474.41)"
       cx="-815.54199"
       cy="631.07098"
       r="0.113" />
    <radialGradient
       inkscape:collect="always"
       xlink:href="#A"
       id="radialGradient15"
       gradientUnits="userSpaceOnUse"
       gradientTransform="matrix(321.992,0,0,-198.8094,262663.97,125474.41)"
       cx="-815.54199"
       cy="631.07098"
       r="0.113" />
    <radialGradient
       inkscape:collect="always"
       xlink:href="#A"
       id="radialGradient16"
       gradientUnits="userSpaceOnUse"
       gradientTransform="matrix(321.992,0,0,-198.8094,262663.97,125474.41)"
       cx="-815.54199"
       cy="631.07098"
       r="0.113" />
    <radialGradient
       inkscape:collect="always"
       xlink:href="#A"
       id="radialGradient17"
       gradientUnits="userSpaceOnUse"
       gradientTransform="matrix(321.992,0,0,-198.8094,262663.97,125474.41)"
       cx="-815.54199"
       cy="631.07098"
       r="0.113" />
    <radialGradient
       inkscape:collect="always"
       xlink:href="#A"
       id="radialGradient18"
       gradientUnits="userSpaceOnUse"
       gradientTransform="matrix(321.992,0,0,-198.8094,262663.97,125474.41)"
       cx="-815.54199"
       cy="631.07098"
       r="0.113" />
    <radialGradient
       inkscape:collect="always"
       xlink:href="#A"
       id="radialGradient19"
       gradientUnits="userSpaceOnUse"
       gradientTransform="matrix(321.992,0,0,-198.8094,262663.97,125474.41)"
       cx="-815.54199"
       cy="631.07098"
       r="0.113" />
    <radialGradient
       inkscape:collect="always"
       xlink:href="#A"
       id="radialGradient20"
       gradientUnits="userSpaceOnUse"
       gradientTransform="matrix(321.992,0,0,-198.8094,262663.97,125474.41)"
       cx="-815.54199"
       cy="631.07098"
       r="0.113" />
    <radialGradient
       inkscape:collect="always"
       xlink:href="#A"
       id="radialGradient21"
       gradientUnits="userSpaceOnUse"
       gradientTransform="matrix(321.992,0,0,-198.8094,262663.97,125474.41)"
       cx="-815.54199"
       cy="631.07098"
       r="0.113" />
    <radialGradient
       inkscape:collect="always"
       xlink:href="#A"
       id="radialGradient22"
       gradientUnits="userSpaceOnUse"
       gradientTransform="matrix(321.992,0,0,-198.8094,262663.97,125474.41)"
       cx="-815.54199"
       cy="631.07098"
       r="0.113" />
  </defs>
  <sodipodi:namedview
     id="namedview14"
     pagecolor="#ffffff"
     bordercolor="#999999"
     borderopacity="1"
     inkscape:showpageshadow="2"
     inkscape:pageopacity="0"
     inkscape:pagecheckerboard="0"
     inkscape:deskcolor="#d1d1d1"
     inkscape:zoom="4.7684549"
     inkscape:cx="58.090095"
     inkscape:cy="46.870528"
     inkscape:window-width="1488"
     inkscape:window-height="914"
     inkscape:window-x="215"
     inkscape:window-y="34"
     inkscape:window-maximized="0"
     inkscape:current-layer="svg14" />
  <radialGradient
     id="A"
     cx="-815.54199"
     cy="631.07098"
     gradientTransform="matrix(321.992,0,0,-198.8094,262663.97,125474.41)"
     gradientUnits="userSpaceOnUse"
     r="0.113">
    <stop
       offset=".45"
       stop-color="#4b3687"
       stop-opacity=".5"
       id="stop1" />
    <stop
       offset="1"
       stop-color="#4b3687"
       id="stop2" />
  </radialGradient>
  <linearGradient
     id="B"
     gradientUnits="userSpaceOnUse"
     x1="10.274"
     x2="41.706001"
     y1="21.809999"
     y2="21.809999">
    <stop
       offset="0"
       stop-color="#343e8c"
       id="stop3" />
    <stop
       offset=".475"
       stop-color="#4b3687"
       stop-opacity=".8"
       id="stop4" />
    <stop
       offset=".569"
       stop-color="#523c8b"
       stop-opacity=".652"
       id="stop5" />
    <stop
       offset=".951"
       stop-color="#695299"
       stop-opacity=".05"
       id="stop6" />
  </linearGradient>
  <g
     id="g14"
     transform="matrix(1.2130553,0,0,1.2130553,-9.9474036,-9.8496416)">
    <g
       fill="url(#A)"
       id="g13"
       style="fill:url(#radialGradient22)">
      <path
         d="m 42.32,33.36 v -8.42 h 3.15 v -1.85 h -8.58 v 1.85 h 3.15 v 8.42 z"
         id="path6"
         style="fill:url(#radialGradient14)" />
      <path
         d="m 19.18,26.67 c 0.09,0.23 0.36,0.86 0.89,1.57 l 3.7,5.11 h 2.07 V 23.07 h -2.09 v 6.94 h -0.03 c -0.06,-0.25 -0.39,-0.84 -0.95,-1.64 l -3.64,-5.3 h -2.08 v 10.27 h 2.11 v -6.68 h 0.02 z"
         id="path7"
         style="fill:url(#radialGradient15)" />
      <path
         d="m 68.14,23.09 h 2.27 v 10.27 h -2.27 z"
         id="path8"
         style="fill:url(#radialGradient16)" />
      <path
         d="m 74.97,23.07 c -1.9,3.01 -2.9,6.84 -3.46,10.29 h 2.28 c 0.12,-0.81 0.28,-1.66 0.47,-2.49 h 3.93 c 0.2,0.83 0.35,1.67 0.45,2.49 h 2.5 c -0.6,-3.52 -1.56,-7.14 -3.48,-10.29 z m -0.38,6.1 C 75,27.61 75.54,26.14 76.21,24.8 h 0.03 c 0.68,1.35 1.21,2.84 1.61,4.37 z"
         id="path9"
         style="fill:url(#radialGradient17)" />
      <path
         d="m 64.24,24.73 c 0.66,0 1.4,0.19 2.07,0.55 l 0.74,-1.88 c -0.74,-0.33 -1.67,-0.6 -2.94,-0.6 -3.45,0 -5.09,2.66 -5.09,5.53 0,3.03 1.97,5.27 5.09,5.27 1,0 2.21,-0.33 2.95,-0.71 l -0.61,-1.76 c -0.51,0.3 -1.24,0.55 -2.05,0.55 -1.62,0 -3.03,-1.27 -3.03,-3.41 0,-1.62 0.73,-3.54 2.87,-3.54 z"
         id="path10"
         style="fill:url(#radialGradient18)" />
      <path
         d="m 27.16,23.09 v 6.2 c 0,3.29 2.12,4.34 5.25,4.34 1.21,0 2.41,-0.13 3.59,-0.35 V 23.09 h -2.2 v 8.64 c -0.42,0.1 -0.85,0.16 -1.28,0.16 -1.6,0 -3.09,-0.58 -3.09,-2.4 v -6.4 z"
         id="path11"
         style="fill:url(#radialGradient19)" />
      <path
         d="m 55.57,23.09 h 2.27 v 10.27 h -2.27 z"
         id="path12"
         style="fill:url(#radialGradient20)" />
      <path
         d="m 54.11,26 c 0,-2.59 -2.39,-2.94 -4.43,-2.94 h -3.33 v 10.27 h 2.27 v -4.1 h 0.71 c 0.23,0 0.45,0.04 0.68,0.51 l 1.89,3.63 h 2.72 l -2.78,-4.7 c 1.35,-0.29 2.27,-1.26 2.27,-2.67 z m -4.25,1.57 h -1.24 v -2.72 h 1.11 c 0.9,0 2.02,0.15 2.02,1.32 0,1.14 -1.02,1.4 -1.89,1.4 z"
         id="path13"
         style="fill:url(#radialGradient21)" />
    </g>
    <path
       d="m 14.48,33.35 a 14.3,14.3 0 0 1 -1.82,-6.99 c 0,-8.11 6.77,-14.69 15.12,-14.69 6.25,0 11.61,3.68 13.92,8.93 -2.43,-6.06 -8.28,-10.33 -15.11,-10.33 -9.01,0 -16.32,7.44 -16.32,16.61 0,2.29 0.46,4.48 1.28,6.47 z"
       fill="url(#B)"
       id="path14"
       style="fill:url(#B)" />
  </g>
</svg>
